<?xml version="1.0" encoding="utf-8"?>
<!-- Generator: Adobe Illustrator 29.7.1, SVG Export Plug-In . SVG Version: 9.03 Build 0)  -->
<svg version="1.1" id="Camada_1" xmlns="http://www.w3.org/2000/svg" xmlns:xlink="http://www.w3.org/1999/xlink" x="0px" y="0px"
	 viewBox="0 0 1034.48 223.51" style="enable-background:new 0 0 1034.48 223.51;" xml:space="preserve">
<style type="text/css">
	.st0{fill-rule:evenodd;clip-rule:evenodd;fill:#007B6C;}
</style>
<g>
	<path class="st0" d="M436.94,66.07c0-15.48-11.31-19.43-21.63-23.16c-6.48-2.41-10.21-4.28-10.21-9.44c0-4.17,3.29-6.37,8.89-6.37
		c5.38,0,11.09,1.21,15.81,2.96l2.64-14.71c-5.71-2.09-12.08-3.07-19.1-3.07c-15.7,0-28.65,7.9-28.65,23.6
		c0,12.84,7.25,18.77,18.99,22.94c9.22,3.18,12.84,5.05,12.84,10.21c0,5.05-3.18,7.9-12.51,7.9c-5.93,0-12.07-1.1-17.34-2.96
		l-1.98,15.48c7.57,1.98,12.4,2.96,20.64,2.96C423,92.42,436.94,84.4,436.94,66.07L436.94,66.07z M536.46,90.66
		c-0.11-24.15-1.54-51.81-4.17-76.62H504.3l-14.6,48.63h-0.11l-14.16-48.63h-27.99c-2.63,24.7-4.39,52.8-4.5,76.62h17.45
		c0.11-19.32,0.99-40.4,2.31-57.3h0.11l16.68,57.3h18.11l17.12-57.3h0.11c1.54,17.01,2.09,37.87,2.2,57.3H536.46L536.46,90.66z
		 M615.57,90.66c-7.14-24.7-16.14-50.93-26.02-76.62h-23.82c-9.99,26.68-18.11,51.15-25.58,76.62h18.88
		c1.32-4.94,2.74-10.1,4.39-15.59h26.24c1.43,5.16,2.85,10.87,4.17,15.59H615.57L615.57,90.66z M585.82,60.47h-18.33
		c2.85-9.33,5.93-18.55,9.22-28.21h0.11C580.11,41.92,582.85,50.92,585.82,60.47L585.82,60.47z M681.17,90.66l-17.67-34.47
		c8.34-2.96,13.61-9.77,13.61-20.86c0-15.04-11.86-21.3-27.99-21.3h-28.98v76.62h19.32V61.35h5.49l13.94,29.31H681.17L681.17,90.66z
		 M656.8,37.2c0,6.04-3.95,9.99-11.75,9.99h-5.6V28.53h7.68C654.16,28.53,656.8,32.48,656.8,37.2L656.8,37.2z M738.75,29.52h-19.54
		v61.14h-19.43V29.52h-19.65V14.04h58.62V29.52z"/>
	<path class="st0" d="M440.9,138.4c0-13.06-7.57-20.75-20.09-23.05c-3.51-0.66-6.92-0.88-10.87-0.88h-25.25v76.62h19.32v-24.81h5.38
		C429.59,166.28,440.9,157.06,440.9,138.4L440.9,138.4z M420.59,139.82c0,6.92-2.96,11.86-10.54,11.86h-6.04v-22.72h4.72
		c2.31,0,4.17,0.22,5.71,0.77C418.72,131.04,420.59,134.77,420.59,139.82L420.59,139.82z M516.38,191.09
		c-7.13-24.7-16.14-50.93-26.02-76.62h-23.82c-9.99,26.68-18.11,51.15-25.58,76.62h18.88c1.32-4.94,2.74-10.1,4.39-15.59h26.24
		c1.43,5.16,2.85,10.87,4.17,15.59H516.38L516.38,191.09z M486.63,160.9h-18.33c2.85-9.33,5.93-18.55,9.22-28.21h0.11
		C480.92,142.35,483.66,151.35,486.63,160.9L486.63,160.9z M581.98,191.09l-17.67-34.47c8.34-2.96,13.61-9.77,13.61-20.86
		c0-15.04-11.86-21.3-27.99-21.3h-28.98v76.62h19.32v-29.31h5.49l13.94,29.31H581.98L581.98,191.09z M557.61,137.63
		c0,6.04-3.95,9.99-11.75,9.99h-5.6v-18.66h7.68C554.97,128.96,557.61,132.91,557.61,137.63L557.61,137.63z M656.36,191.09h-21.73
		c-1.32-4.72-2.74-10.43-4.17-15.59h-26.24c-1.65,5.49-3.07,10.65-4.39,15.59h-18.88c7.46-25.47,15.59-49.95,25.58-76.62h23.82
		C640.22,140.15,649.22,166.39,656.36,191.09L656.36,191.09z M626.61,160.9c-2.96-9.55-5.71-18.55-9-28.21h-0.11
		c-3.29,9.66-6.37,18.88-9.22,28.21H626.61L626.61,160.9z M753.57,191.09c-0.11-24.15-1.54-51.81-4.17-76.62h-27.99l-14.6,48.63
		h-0.11l-14.16-48.63h-27.99c-2.63,24.7-4.39,52.8-4.5,76.62h17.45c0.11-19.32,0.99-40.4,2.31-57.3h0.11l16.69,57.3h18.11
		l17.12-57.3h0.11c1.54,17.01,2.09,37.87,2.2,57.3H753.57L753.57,191.09z M811.16,191.09v-14.71h-28.54v-17.56h24.04v-14.49h-24.04
		v-15.15h28.1v-14.71h-47.31v76.62H811.16L811.16,191.09z M887.74,151.79c0-25.25-14.6-37.32-39.52-37.32h-28.1v76.62h26.56
		C871.38,191.09,887.74,178.9,887.74,151.79L887.74,151.79z M867.76,152.67c0,14.93-7.03,23.49-20.75,23.49h-7.68v-46.98h7.57
		C862.27,129.18,867.76,139.27,867.76,152.67L867.76,152.67z M914.26,191.09v-76.62h-19.32v76.62H914.26L914.26,191.09z
		 M979.86,188.34l-4.72-14.82c-4.06,1.87-8.56,3.07-13.17,3.07c-11.64,0-19.54-6.81-19.54-23.93c0-13.61,6.37-23.82,17.89-23.82
		c4.72,0,9.22,0.99,13.72,3.18l5.49-14.82c-6.15-3.07-13.06-4.39-20.2-4.39c-22.17,0-37.43,14.49-37.43,41.16
		c0,26.02,13.94,38.75,37.98,38.75C966.36,192.73,974.48,190.87,979.86,188.34L979.86,188.34z M1034.48,166.5
		c0-15.48-11.31-19.43-21.63-23.16c-6.48-2.41-10.21-4.28-10.21-9.44c0-4.17,3.29-6.37,8.89-6.37c5.38,0,11.09,1.21,15.81,2.96
		l2.63-14.71c-5.71-2.09-12.08-3.07-19.1-3.07c-15.7,0-28.65,7.9-28.65,23.6c0,12.84,7.25,18.77,18.99,22.94
		c9.22,3.18,12.84,5.05,12.84,10.21c0,5.05-3.18,7.9-12.51,7.9c-5.93,0-12.07-1.1-17.34-2.96l-1.98,15.48
		c7.57,1.98,12.4,2.96,20.64,2.96C1020.54,192.84,1034.48,184.83,1034.48,166.5z"/>
</g>
<path class="st0" d="M55.42,12.61H211.3c6.17,0,11.77,2.52,15.83,6.58c4.06,4.06,6.58,9.66,6.58,15.83v5.97
	c2.57-5.42,8.1-9.17,14.5-9.17c8.86,0,16.04,7.18,16.04,16.04c0,0.72-0.05,1.42-0.14,2.12h0.4c5.19,0,9.32,1.52,12.87,4.37
	c3.22,2.59,5.77,6.2,8.13,10.72l18.78,35.97l25.84,7.97c4.6,1.42,8.22,3.94,10.72,7.36c2.52,3.44,3.84,7.67,3.84,12.48v12.3H329.7
	v19.09h14.99v3.98v6.24c0,5.15-2.1,9.83-5.49,13.22c-3.39,3.39-8.07,5.49-13.22,5.49h-7.58c-1.13,8.87-5.2,16.82-11.22,22.83
	c-7.13,7.13-16.97,11.53-27.84,11.53c-10.87,0-20.71-4.41-27.84-11.53c-6.01-6.01-10.09-13.96-11.22-22.83H129.64
	c-1.13,8.87-5.2,16.82-11.22,22.83c-7.12,7.13-16.97,11.53-27.84,11.53c-10.87,0-20.71-4.41-27.84-11.53
	c-6.01-6.01-10.09-13.96-11.22-22.83c-5.08-0.05-9.68-2.14-13.03-5.49c-1.31-1.31-2.43-2.82-3.31-4.48H22.58
	c-2.86,0-5.19-2.32-5.19-5.19c0-2.86,2.32-5.19,5.19-5.19h10.43v-9.46H5.19c-2.86,0-5.19-2.32-5.19-5.19c0-2.86,2.32-5.19,5.19-5.19
	H58.9v-7.65H33.01v-7.2H12.28c-2.86,0-5.19-2.32-5.19-5.19c0-2.86,2.32-5.19,5.19-5.19h20.73V35.01c0-6.17,2.52-11.77,6.58-15.83
	C43.65,15.13,49.25,12.61,55.42,12.61L55.42,12.61z M296.93,166.57c-4.5-4.5-10.71-7.28-17.57-7.28c-6.86,0-13.08,2.78-17.57,7.28
	c-4.5,4.5-7.28,10.71-7.28,17.57s2.78,13.08,7.28,17.57c4.5,4.5,10.71,7.28,17.57,7.28c6.86,0,13.08-2.78,17.57-7.28
	c4.5-4.5,7.28-10.71,7.28-17.57S301.42,171.07,296.93,166.57L296.93,166.57z M108.16,166.57c-4.5-4.5-10.71-7.28-17.57-7.28
	c-6.86,0-13.08,2.78-17.57,7.28c-4.5,4.5-7.28,10.71-7.28,17.57s2.78,13.08,7.28,17.57c4.5,4.5,10.71,7.28,17.57,7.28
	c6.86,0,13.08-2.78,17.57-7.28c4.5-4.5,7.28-10.71,7.28-17.57S112.66,171.07,108.16,166.57L108.16,166.57z M275.26,38.23l12.5-7.22
	c2.48-1.43,3.33-4.6,1.9-7.08c-1.43-2.48-4.6-3.33-7.08-1.9l-12.5,7.22c-2.48,1.43-3.33,4.6-1.9,7.08
	C269.6,38.81,272.78,39.66,275.26,38.23L275.26,38.23z M266.82,25.99l7.22-12.5c1.43-2.48,0.58-5.65-1.9-7.08
	c-2.48-1.43-5.65-0.58-7.08,1.9l-7.22,12.5c-1.43,2.48-0.58,5.65,1.9,7.08C262.21,29.32,265.39,28.47,266.82,25.99L266.82,25.99z
	 M253.39,19.62V5.19c0-2.86-2.32-5.19-5.19-5.19c-2.86,0-5.19,2.32-5.19,5.19v14.43c0,2.86,2.32,5.19,5.19,5.19
	C251.07,24.8,253.39,22.48,253.39,19.62L253.39,19.62z M223.34,55.76V35.01c0-3.3-1.36-6.31-3.54-8.5s-5.19-3.54-8.5-3.54H55.42
	c-3.3,0-6.31,1.36-8.5,3.54s-3.54,5.19-3.54,8.5v93.82h290.94c0-2.58-0.62-4.73-1.81-6.36c-1.19-1.63-3.01-2.85-5.41-3.59
	l-29.96-9.24l-20.79-39.81c-1.72-3.3-3.46-5.83-5.46-7.44c-1.68-1.34-3.72-2.06-6.39-2.06h-37.22
	C224.71,60.34,223.34,58.27,223.34,55.76L223.34,55.76z M225.4,145.2h14.43c2.86,0,5.19-2.32,5.19-5.19c0-2.86-2.32-5.19-5.19-5.19
	H225.4c-2.86,0-5.19,2.32-5.19,5.19C220.22,142.88,222.54,145.2,225.4,145.2L225.4,145.2z M57.99,33.29c-1.65,0-3,1.35-3,3v11.99
	c0,1.65,1.35,3,3,3h17.9c1.65,0,3-1.35,3-3V36.29c0-1.65-1.35-3-3-3H57.99L57.99,33.29z M190.83,33.29c-1.65,0-3,1.35-3,3v11.99
	c0,1.65,1.35,3,3,3h17.9c1.65,0,3-1.35,3-3V36.29c0-1.65-1.35-3-3-3H190.83L190.83,33.29z M231.79,117.21h47.59
	c3.8,0,6.13-4.39,4.21-8.1l-15.58-30.05c-2.14-4.13-4.96-7.12-9.6-7.12h-26.62c-4.65,0-8.45,3.8-8.45,8.45v28.36
	C223.34,113.41,227.14,117.21,231.79,117.21L231.79,117.21z M124.41,43.01c-1.65,0-3,1.35-3,3v17.95h-17.95c-1.65,0-3,1.35-3,3v17.9
	c0,1.65,1.35,3,3,3h17.95v17.95c0,1.65,1.35,3,3,3h17.9c1.65,0,3-1.35,3-3V87.85h17.95c1.65,0,3-1.35,3-3v-17.9c0-1.65-1.35-3-3-3
	h-17.95V46.01c0-1.65-1.35-3-3-3H124.41z"/>
</svg>
