<?xml version="1.0" encoding="utf-8"?>
<!-- Generator: Adobe Illustrator 29.7.1, SVG Export Plug-In . SVG Version: 9.03 Build 0)  -->
<svg version="1.1" id="Layer_1" xmlns="http://www.w3.org/2000/svg" xmlns:xlink="http://www.w3.org/1999/xlink" x="0px" y="0px"
	 viewBox="0 0 720.04 466.91" style="enable-background:new 0 0 720.04 466.91;" xml:space="preserve">
<style type="text/css">
	.st0{fill-rule:evenodd;clip-rule:evenodd;fill:#007A6C;}
</style>
<path class="st0" d="M115.77,26.33h325.63c12.88,0,24.59,5.26,33.07,13.74c8.48,8.48,13.74,20.18,13.74,33.07V85.6
	c5.38-11.32,16.92-19.15,30.29-19.15c18.51,0,33.51,15,33.51,33.51c0,1.5-0.1,2.97-0.29,4.42h0.83c10.85,0,19.47,3.18,26.89,9.13
	c6.74,5.41,12.06,12.95,16.99,22.39l39.24,75.14l53.98,16.64c9.61,2.96,17.16,8.23,22.39,15.38c5.25,7.19,8.01,16.01,8.01,26.06
	v25.69h-31.31v39.88h31.31v8.32v13.02c0,10.76-4.39,20.53-11.47,27.61c-7.08,7.08-16.85,11.47-27.61,11.47h-15.83
	c-2.35,18.53-10.87,35.13-23.43,47.69c-14.88,14.88-35.44,24.09-58.15,24.09c-22.71,0-43.27-9.21-58.15-24.09
	c-12.56-12.56-21.08-29.16-23.43-47.69H270.81c-2.35,18.53-10.87,35.13-23.43,47.69c-14.88,14.88-35.44,24.09-58.15,24.09
	c-22.71,0-43.27-9.21-58.15-24.09c-12.56-12.56-21.08-29.17-23.43-47.69c-10.6-0.1-20.22-4.48-27.22-11.47
	c-2.75-2.75-5.09-5.9-6.92-9.35H47.16c-5.98,0-10.83-4.85-10.83-10.83c0-5.98,4.85-10.83,10.83-10.83h21.79v-19.77H10.83
	C4.85,332.87,0,328.02,0,322.03c0-5.98,4.85-10.83,10.83-10.83h112.2v-15.99H68.96v-15.04h-43.3c-5.98,0-10.83-4.85-10.83-10.83
	c0-5.98,4.85-10.83,10.83-10.83h43.3V73.14c0-12.88,5.26-24.59,13.74-33.07C91.18,31.6,102.88,26.33,115.77,26.33L115.77,26.33z
	 M620.26,347.95c-9.39-9.39-22.37-15.2-36.71-15.2c-14.34,0-27.31,5.81-36.71,15.2c-9.39,9.39-15.2,22.37-15.2,36.71
	c0,14.34,5.81,27.31,15.2,36.71c9.39,9.39,22.37,15.2,36.71,15.2c14.34,0,27.31-5.81,36.71-15.2c9.39-9.39,15.2-22.37,15.2-36.71
	C635.46,370.33,629.65,357.35,620.26,347.95L620.26,347.95z M225.94,347.95c-9.39-9.39-22.37-15.2-36.71-15.2
	c-14.34,0-27.31,5.81-36.71,15.2c-9.39,9.39-15.2,22.37-15.2,36.71c0,14.34,5.81,27.31,15.2,36.71c9.39,9.39,22.37,15.2,36.71,15.2
	c14.34,0,27.31-5.81,36.71-15.2c9.39-9.39,15.2-22.37,15.2-36.71C241.14,370.33,235.33,357.35,225.94,347.95L225.94,347.95z
	 M574.99,79.85l26.11-15.07c5.18-2.99,6.96-9.62,3.97-14.8c-2.99-5.18-9.62-6.96-14.8-3.97l-26.11,15.07
	c-5.18,2.99-6.96,9.62-3.96,14.8C563.18,81.07,569.81,82.84,574.99,79.85L574.99,79.85z M557.36,54.3l15.07-26.11
	c2.99-5.18,1.22-11.81-3.97-14.8c-5.18-2.99-11.81-1.22-14.8,3.97L538.6,43.46c-2.99,5.18-1.22,11.81,3.97,14.8
	C547.75,61.25,554.37,59.48,557.36,54.3L557.36,54.3z M529.32,40.98V10.83c0-5.98-4.85-10.83-10.83-10.83
	c-5.98,0-10.83,4.85-10.83,10.83v30.15c0,5.98,4.85,10.83,10.83,10.83C524.47,51.81,529.32,46.96,529.32,40.98L529.32,40.98z
	 M466.54,116.47V73.14c0-6.9-2.83-13.19-7.39-17.75C454.58,50.83,448.3,48,441.39,48H115.77c-6.9,0-13.19,2.83-17.75,7.39
	c-4.56,4.56-7.39,10.85-7.39,17.75v195.99h607.75c0-5.4-1.3-9.89-3.78-13.28c-2.48-3.39-6.29-5.96-11.3-7.51l-62.58-19.29
	l-43.42-83.15c-3.6-6.89-7.22-12.18-11.4-15.54c-3.5-2.81-7.77-4.31-13.35-4.31h-77.76C469.4,126.05,466.54,121.73,466.54,116.47
	L466.54,116.47z M470.85,303.32H501c5.98,0,10.83-4.85,10.83-10.83c0-5.98-4.85-10.83-10.83-10.83h-30.14
	c-5.98,0-10.83,4.85-10.83,10.83C460.02,298.46,464.87,303.32,470.85,303.32L470.85,303.32z M121.14,69.54
	c-3.44,0-6.26,2.82-6.26,6.26v25.04c0,3.44,2.82,6.26,6.26,6.26h37.39c3.44,0,6.26-2.82,6.26-6.26V75.8c0-3.44-2.82-6.26-6.26-6.26
	H121.14L121.14,69.54z M398.63,69.54c-3.44,0-6.26,2.82-6.26,6.26v25.04c0,3.44,2.82,6.26,6.26,6.26h37.39
	c3.44,0,6.26-2.82,6.26-6.26V75.8c0-3.44-2.82-6.26-6.26-6.26H398.63L398.63,69.54z M484.19,244.84h99.42
	c7.94,0,12.81-9.17,8.79-16.91l-32.54-62.77c-4.47-8.62-10.35-14.88-20.06-14.88h-55.61c-9.71,0-17.65,7.94-17.65,17.65v59.25
	C466.54,236.9,474.48,244.84,484.19,244.84L484.19,244.84z M259.88,89.86c-3.44,0-6.26,2.82-6.26,6.26v37.49h-37.49
	c-3.44,0-6.26,2.82-6.26,6.26v37.39c0,3.44,2.82,6.26,6.26,6.26h37.49v37.49c0,3.44,2.82,6.26,6.26,6.26h37.39
	c3.44,0,6.26-2.82,6.26-6.26v-37.49h37.49c3.44,0,6.26-2.82,6.26-6.26v-37.39c0-3.44-2.82-6.26-6.26-6.26h-37.49V96.11
	c0-3.44-2.82-6.26-6.26-6.26H259.88z"/>
</svg>
